<?xml version="1.0" encoding="UTF-8" standalone="no"?>
<svg
   xmlns:dc="http://purl.org/dc/elements/1.1/"
   xmlns:cc="http://creativecommons.org/ns#"
   xmlns:rdf="http://www.w3.org/1999/02/22-rdf-syntax-ns#"
   xmlns:svg="http://www.w3.org/2000/svg"
   xmlns="http://www.w3.org/2000/svg"
   xmlns:sodipodi="http://sodipodi.sourceforge.net/DTD/sodipodi-0.dtd"
   xmlns:inkscape="http://www.inkscape.org/namespaces/inkscape"
   viewBox="0 0 1585.6 638.5"
   version="1.1"
   id="svg87"
   sodipodi:docname="graphs.svg"
   inkscape:version="0.92.3 (2405546, 2018-03-11)">
  <metadata
     id="metadata93">
    <rdf:RDF>
      <cc:Work
         rdf:about="">
        <dc:format>image/svg+xml</dc:format>
        <dc:type
           rdf:resource="http://purl.org/dc/dcmitype/StillImage" />
      </cc:Work>
    </rdf:RDF>
  </metadata>
  <defs
     id="defs91" />
  <sodipodi:namedview
     pagecolor="#ffffff"
     bordercolor="#666666"
     borderopacity="1"
     objecttolerance="10"
     gridtolerance="10"
     guidetolerance="10"
     inkscape:pageopacity="0"
     inkscape:pageshadow="2"
     inkscape:window-width="1366"
     inkscape:window-height="705"
     id="namedview89"
     showgrid="false"
     inkscape:zoom="0.76690213"
     inkscape:cx="979.82706"
     inkscape:cy="319.25"
     inkscape:window-x="0"
     inkscape:window-y="34"
     inkscape:window-maximized="1"
     inkscape:current-layer="graphs_and_statistics_outline_II-3" />
  <g
     id="graphs_and_statistics_outline_II"
     data-name="graphs and statistics/outline_II"
     transform="translate(2.6 2.6)">
    <g
       id="graphs_and_statistics_outline_II-2"
       data-name="graphs and statistics/outline_II">
      <g
         id="graphs_and_statistics_outline_II-3"
         data-name="graphs and statistics_outline_II">
        <g
           id="flower_1_"
           transform="translate(115 93)">
          <g
             id="leaves_1_"
             style="fill:#ff50ff;fill-opacity:1">
            <g
               id="leaf_IV_1_"
               transform="translate(72 60)"
               style="fill:#ff50ff;fill-opacity:1">
              <path
                 id="Path"
                 d="M10.529,14.177C23.51-.563,43.377-3.859,62.046,4.522,80.732,12.911,95.118,31.493,99.884,55.27l.472,2.411.164.822c3.947,19.6,7.747,28.251,15.8,36.919l.28.3c4.264,4.432,22.753,20.943,25.431,23.452a3,3,0,1,1-4.1,4.378l-2.583-2.357c-6.035-5.469-19.816-17.872-23.284-21.539l-.137-.146c-8.906-9.586-13.139-19.224-17.287-39.818q-.251-1.247-.505-2.565c-8.709-45.49-55.049-66.293-79.1-38.981C4.647,29.933,3.6,47.719,10,68.969c4.613,15.316,13.293,31.91,19.623,39.848l.282.35c3.119,3.835,4.464,10.639,6,26.487l1.477,16.056.314,3.253c.451,4.577.9,8.666,1.394,12.706a282.075,282.075,0,0,0,6.21,34.616q.658,2.617,1.37,5.167a3,3,0,1,1-5.779,1.615q-.734-2.626-1.41-5.319A287.893,287.893,0,0,1,33.134,168.4l-.229-1.893c-.413-3.482-.795-7.042-1.18-10.951l-.4-4.19c-.339-3.644-1.077-11.822-1.225-13.4l-.164-1.722c-1.384-14.24-2.661-20.81-4.679-23.291-6.851-8.4-16.091-25.966-21-42.255C-2.679,47.67-1.514,27.851,10.529,14.177Z"
                 transform="translate(-2.98 -2.159)"
                 fill="#fe7624"
                 style="fill:#ff50ff;fill-opacity:1" />
            </g>
            <g
               id="leaf_II_1_"
               transform="translate(0 220)"
               style="fill:#ff50ff;fill-opacity:1">
              <path
                 id="Path-2"
                 data-name="Path"
                 d="M34.433.191C51.6-1.342,69.878,6.4,83.3,21.906l1.3,1.518c7.505,8.741,12.78,13.7,17.923,16.892,4.256,2.644,8.529,4.225,15.686,5.954l1.029.242c2.6.586,15.466,3.429,20.74,4.721l2.185.542c9.852,2.473,20.012,5.432,31.624,9.321C191,66.833,207.176,78.333,222.537,94.9a3,3,0,1,1-4.4,4.079c-14.726-15.884-30.1-26.809-46.253-32.195-11.891-3.982-22.217-6.971-32.26-9.461l-2.695-.654c-6.355-1.505-18.525-4.187-19.487-4.415-8.109-1.925-13.063-3.723-18.087-6.844C93.381,41.7,87.5,36.1,79.152,26.284,54.177-3.1,12.516.622,6.576,29.946,3.969,42.613,10.529,55.9,23.9,68.726,33.543,77.97,46.645,86.5,54.44,89.691l.392.158c4.013,1.572,7.906,6.125,15.681,17.221l9.01,12.948,1.62,2.3c4.366,6.145,8.33,11.44,12.4,16.482,13.414,16.619,26.887,29.011,41.737,37.111,9.1,4.982,17.588,7.025,26.045,6.749,6.346-.207,11.949-1.534,19.916-4.321l5.895-2.108,1.4-.488c1.333-.457,2.474-.825,3.573-1.147a28.826,28.826,0,0,1,9.735-1.434c7.08.387,12.572,4.711,17.172,13.827a3,3,0,1,1-5.357,2.7c-3.638-7.21-7.3-10.172-11.882-10.522l-.541-.031c-3.041-.146-4.588.161-12.359,2.87l-4.9,1.728c-8.892,3.151-15.167,4.682-22.455,4.92-9.534.311-19.088-1.988-29.119-7.481-15.639-8.53-29.662-21.427-43.528-38.607-3.911-4.845-7.714-9.9-11.843-15.683l-1.848-2.608-9.57-13.747-.945-1.342c-6.163-8.708-9.641-12.733-11.918-13.71l-.113-.046c-8.482-3.35-22.526-12.44-32.887-22.375C5.042,58.956-2.412,43.853.7,28.746,4,12.429,17.211,1.728,34.433.191Z"
                 transform="translate(-2.437 -2.641)"
                 fill="#fe7624"
                 style="fill:#ff50ff;fill-opacity:1" />
            </g>
            <path
               id="Path-3"
               data-name="Path"
               d="M41.4,29.935C52.489,8.562,70.505-2.093,96.208.341c10.826,1.012,19.489,4.041,26.114,8.982a3,3,0,1,1-3.587,4.81c-5.686-4.24-13.3-6.9-23.089-7.818C72.462,4.12,56.725,13.426,46.729,32.7c-8.09,15.6-12.083,36.853-13.161,63.38l-.042,1.064c-.3,7.931-.315,14.223-.152,24.33l.125,7.616c.141,10.032.035,14.249-.539,19.418l-.031.273a50.385,50.385,0,0,1-6.7,20.856A68.8,68.8,0,0,1,14.07,184.362l-.594.559c-9.8,9.15-9.6,19.453-1.84,35.9l.78,1.625c.96,1.969,2,4,3.629,7.109l2.349,4.5a111.528,111.528,0,0,1,6,12.879c2.415,6.352,3.36,11.8,2.6,16.844l-.148.9c-.582,3.348-2.239,11.714-2.415,12.67a160.322,160.322,0,0,0-1.89,48.686c2.612,24.435,10.383,51.778,24.617,82.954a3,3,0,1,1-5.458,2.492c-14.494-31.746-22.441-59.711-25.125-84.808a165.812,165.812,0,0,1,1.773-49.4l.27-1.464c.444-2.309,2.144-10.918,2.445-12.918.563-3.741-.144-8.048-2.071-13.274l-.38-1a117.438,117.438,0,0,0-6-12.676l-2.764-5.291c-1.447-2.783-2.4-4.683-3.384-6.733C2.351,215.3.2,208.51.013,201.977-.215,194.028,2.634,187.008,9,180.895l.379-.359a63.962,63.962,0,0,0,11.684-13.96,44.021,44.021,0,0,0,5.819-17.764l.141-1.222c.515-4.755.61-8.865.474-18.507l-.158-9.816c-.118-8.409-.092-14.235.146-21.123l.044-1.227C28.575,69.084,32.708,46.7,41.4,29.935Z"
               transform="translate(199.071 -2.628)"
               fill="#fe7624"
               style="fill:#ff50ff;fill-opacity:1" />
            <path
               id="Path-4"
               data-name="Path"
               d="M52,159.306H3a3,3,0,0,1-2.993-3.217C2.371,123.569,6.652,96.31,13.094,72.752c2.084-7.62,4.417-14.9,6.935-21.63a189.574,189.574,0,0,1,8.388-19.245,145.007,145.007,0,0,1,9.911-16.763A114.894,114.894,0,0,1,49.834.931,2.952,2.952,0,0,1,51.977,0,2.986,2.986,0,0,1,55,3.006v153.3A3,3,0,0,1,52,159.306Zm-3-148.4-.128.156C36.231,26.5,26.14,47.792,18.881,74.335c-6.125,22.4-10.259,48.192-12.638,78.849l-.009.122H49Z"
               transform="translate(267.6 251.294)"
               fill="#fe7624"
               style="fill:#ff50ff;fill-opacity:1" />
          </g>
          <path
             id="pot_2_"
             d="M138.353,0a3,3,0,0,1,.176,5.995L138.353,6h-121A11.074,11.074,0,0,0,6.223,19.079L32.081,134.645a3,3,0,0,1-5.812,1.481l-.043-.171L.429,20.672C-1.986,10.165,6.095.2,17.021,0l.332,0Z"
             transform="translate(180.347 404.6)"
             fill="#2e186a"
             style="fill:#0818b4;fill-opacity:1" />
        </g>
        <path
           style="fill:#2e186a"
           inkscape:connector-curvature="0"
           d="M 1197.9,634.8 H 434.6 a 3,3 0 0 1 -3,-3 V 0.4 a 3,3 0 0 1 3,-3 h 763.3 a 3,3 0 0 1 3,3 v 631.4 a 3,3 0 0 1 -3,3 z M 437.6,3.4 v 625.4 h 757.3 V 3.4 Z"
           id="shape_15_" />
        <path
           id="Rectangle"
           d="m 911.4,542 h -42.8 a 3,3 0 0 1 -3,-3 v -66.8 a 3,3 0 0 1 3,-3 h 42.8 a 3,3 0 0 1 3,3 V 539 a 3,3 0 0 1 -3,3 z M 871.6,475.2 V 536 h 36.8 v -60.8 z"
           inkscape:connector-curvature="0"
           style="fill:#ff50ff;fill-opacity:1" />
        <path
           id="Rectangle-2"
           data-name="Rectangle"
           d="m 978.6,542 h -42.8 a 3,3 0 0 1 -3,-3 v -94.9 a 3,3 0 0 1 3,-3 h 42.8 a 3,3 0 0 1 3,3 V 539 a 3,3 0 0 1 -3,3 z M 938.8,447.1 V 536 h 36.8 v -88.9 z"
           inkscape:connector-curvature="0"
           style="fill:#ff50ff;fill-opacity:1" />
        <path
           id="Rectangle-3"
           data-name="Rectangle"
           d="m 1045.7,542 h -42.8 a 3,3 0 0 1 -3,-3 V 399.7 a 3,3 0 0 1 3,-3 h 42.8 a 3,3 0 0 1 3,3 V 539 a 3,3 0 0 1 -3,3 z m -39.8,-139.3 v 0 133.3 h 36.8 V 402.7 Z"
           inkscape:connector-curvature="0"
           style="fill:#ff50ff;fill-opacity:1" />
        <rect
           id="Rectangle-4"
           data-name="Rectangle"
           width="42.799999"
           height="177.7"
           x="1070"
           y="361.29999"
           style="fill:#ff50ff;fill-opacity:1" />
        <path
           id="arrow_1_"
           d="m 1127.3,270.1 a 3.1,3.1 0 0 0 -2.4,-0.7 l -28,4.5 a 3.011,3.011 0 0 0 -2.5,3.4 3.09,3.09 0 0 0 3.4,2.5 l 18.3,-2.9 -54.6,63.4 -22.3,-21.4 a 2.651,2.651 0 0 0 -2.2,-0.8 2.814,2.814 0 0 0 -2.1,1 l -73.2,85 -21.2,-15.9 a 3.028,3.028 0 0 0 -3.9,0.2 l -65.7,63 a 2.988,2.988 0 0 0 -0.1,4.2 3.1,3.1 0 0 0 2.2,0.9 3.439,3.439 0 0 0 2.1,-0.8 l 63.9,-61.3 21.5,16.1 a 3.077,3.077 0 0 0 4.1,-0.4 l 72.9,-84.7 22.3,21.4 a 2.651,2.651 0 0 0 2.2,0.8 2.814,2.814 0 0 0 2.1,-1 l 58.3,-67.7 -0.4,23.7 a 2.946,2.946 0 0 0 3,3 v 0 a 3.009,3.009 0 0 0 3,-3 l 0.5,-30.3 a 3.738,3.738 0 0 0 -1.2,-2.2 z"
           inkscape:connector-curvature="0"
           style="fill:#ff50ff;fill-opacity:1" />
        <g
           id="lines_8_"
           transform="translate(507,469)">
          <path
             id="Path-5"
             data-name="Path"
             d="m 187,0 a 3,3 0 0 1 0.176,5.995 L 187,6 H 3 A 3,3 0 0 1 2.824,0.005 L 3,0 Z"
             transform="translate(1.6,-2.1)"
             inkscape:connector-curvature="0"
             style="fill:#2e186a" />
          <path
             id="Path-6"
             data-name="Path"
             d="m 138.5,0 a 3,3 0 0 1 0.176,5.995 L 138.5,6 H 3 A 3,3 0 0 1 2.824,0.005 L 3,0 Z"
             transform="translate(1.6,25.9)"
             inkscape:connector-curvature="0"
             style="fill:#2e186a" />
          <path
             id="Path-7"
             data-name="Path"
             d="m 99,0 a 3,3 0 0 1 0.176,5.995 L 99,6 H 3 A 3,3 0 0 1 2.824,0.005 L 3,0 Z"
             transform="translate(-2.4,57.3)"
             inkscape:connector-curvature="0"
             style="fill:#2e186a" />
          <path
             id="Path-8"
             data-name="Path"
             d="m 82.4,0 a 3,3 0 0 1 0.176,5.995 L 82.4,6 H 3 A 3,3 0 0 1 2.824,0.005 L 3,0 Z"
             transform="translate(206.8,-2.1)"
             inkscape:connector-curvature="0"
             style="fill:#2e186a" />
        </g>
        <g
           id="oragne_bar"
           transform="translate(507,381)">
          <path
             id="Path-9"
             data-name="Path"
             d="m 0,20.3 21.2,20 V 0 Z"
             transform="translate(91.9,7.4)"
             inkscape:connector-curvature="0"
             style="fill:#fe7624" />
          <path
             id="Path-10"
             data-name="Path"
             d="M 0,41.4 21.8,20.5 0,0 Z"
             transform="translate(61.4,7.3)"
             inkscape:connector-curvature="0"
             style="fill:#fe7624" />
          <path
             id="Path-11"
             data-name="Path"
             d="M 49,0 H 0 l 24.7,23.3 z"
             transform="translate(120.5,0.3)"
             inkscape:connector-curvature="0"
             style="fill:#fe7624" />
          <path
             id="Path-12"
             data-name="Path"
             d="M 24.8,0 0,23.9 h 50.2 z"
             transform="translate(62.7,31.9)"
             inkscape:connector-curvature="0"
             style="fill:#fe7624" />
          <path
             id="Path-13"
             data-name="Path"
             d="M 0,41.4 21.8,20.5 0,0 Z"
             transform="translate(119.1,7.3)"
             inkscape:connector-curvature="0"
             style="fill:#fe7624" />
          <path
             id="Path-14"
             data-name="Path"
             d="M 0,0 V 47.1 L 24.8,23.3 Z"
             transform="translate(0.6,4.5)"
             inkscape:connector-curvature="0"
             style="fill:#fe7624" />
          <path
             id="Path-15"
             data-name="Path"
             d="M 24.8,0 0,23.9 h 50.2 z"
             transform="translate(5,31.9)"
             inkscape:connector-curvature="0"
             style="fill:#fe7624" />
          <path
             id="Path-16"
             data-name="Path"
             d="M 49,0 H 0 l 24.8,23.3 z"
             transform="translate(5,0.3)"
             inkscape:connector-curvature="0"
             style="fill:#fe7624" />
          <path
             id="Path-17"
             data-name="Path"
             d="M 21.2,40.3 V 0 L 0,20.3 Z"
             transform="translate(149.6,7.4)"
             inkscape:connector-curvature="0"
             style="fill:#fe7624" />
          <path
             id="Path-18"
             data-name="Path"
             d="m 0,20.3 21.2,20 V 0 Z"
             transform="translate(34.2,7.4)"
             inkscape:connector-curvature="0"
             style="fill:#fe7624" />
          <path
             id="Path-19"
             data-name="Path"
             d="M 24.8,0 0,23.9 h 50.2 z"
             transform="translate(120.5,31.9)"
             inkscape:connector-curvature="0"
             style="fill:#fe7624" />
          <path
             id="Path-20"
             data-name="Path"
             d="M 49,0 H 0 l 24.8,23.3 z"
             transform="translate(62.7,0.3)"
             inkscape:connector-curvature="0"
             style="fill:#fe7624" />
          <path
             id="Path-21"
             data-name="Path"
             d="M 51.7,0 H 0 v 55.5 h 51.7 z"
             transform="translate(176.8,0.3)"
             inkscape:connector-curvature="0"
             style="fill:#ff50ff;fill-opacity:1" />
          <path
             id="Path-22"
             data-name="Path"
             d="M 54.7,0 H 0 v 55.5 h 54.7 z"
             transform="translate(234.5,0.3)"
             inkscape:connector-curvature="0"
             style="fill:#ff50ff;fill-opacity:1" />
          <path
             id="Path-23"
             data-name="Path"
             d="m 0.4,0.45 c 0.1,0.1 0.1,0.1 0.2,0.1 v -0.1 z"
             transform="translate(170.2,55.35)"
             inkscape:connector-curvature="0"
             style="fill:#fe7624" />
        </g>
        <g
           transform="translate(972,121)"
           id="layout_3_">
          <path
             style="fill:#2e186a"
             inkscape:connector-curvature="0"
             transform="translate(79.1,53.9)"
             d="M 34,37 H 3 A 3,3 0 0 1 0,34 V 3 A 3,3 0 0 1 3,0 h 31 a 3,3 0 0 1 3,3 v 31 a 3,3 0 0 1 -3,3 z M 6,6 V 31 H 31 V 6 Z"
             data-name="Rectangle"
             id="Rectangle-5" />
          <path
             style="fill:#2e186a"
             inkscape:connector-curvature="0"
             transform="translate(-2.3,-2.3)"
             d="M 121.5,41.7 H 3 a 3,3 0 0 1 -3,-3 V 3 A 3,3 0 0 1 3,0 h 118.5 a 3,3 0 0 1 3,3 v 35.7 a 3,3 0 0 1 -3,3 z M 6,6 V 35.7 H 118.5 V 6 Z"
             data-name="Rectangle"
             id="Rectangle-6" />
          <path
             style="fill:#2e186a"
             inkscape:connector-curvature="0"
             transform="translate(-2.3,84.9)"
             d="m 63.3,0 a 3,3 0 0 1 0.176,5.995 L 63.3,6 H 3 A 3,3 0 0 1 2.824,0.005 L 3,0 Z"
             data-name="Path"
             id="Path-24" />
          <path
             style="fill:#2e186a"
             inkscape:connector-curvature="0"
             transform="translate(-2.3,70.2)"
             d="m 63.3,0 a 3,3 0 0 1 0.176,5.995 L 63.3,6 H 3 A 3,3 0 0 1 2.824,0.005 L 3,0 Z"
             data-name="Path"
             id="Path-25" />
          <path
             style="fill:#2e186a"
             inkscape:connector-curvature="0"
             transform="translate(-2.3,55.6)"
             d="m 63.3,0 a 3,3 0 0 1 0.176,5.995 L 63.3,6 H 3 A 3,3 0 0 1 2.824,0.005 L 3,0 Z"
             data-name="Path"
             id="Path-26" />
        </g>
        <g
           transform="translate(875,292)"
           id="lines_7_">
          <path
             style="fill:#2e186a"
             inkscape:connector-curvature="0"
             transform="translate(-2.5,-2.3)"
             d="m 167.7,0 a 3,3 0 0 1 0.176,5.995 L 167.7,6 H 3 A 3,3 0 0 1 2.824,0.005 L 3,0 Z"
             data-name="Path"
             id="Path-27" />
          <path
             style="fill:#2e186a"
             inkscape:connector-curvature="0"
             transform="translate(-2.5,11.8)"
             d="m 100.2,0 a 3,3 0 0 1 0.176,5.995 L 100.2,6 H 3 A 3,3 0 0 1 2.824,0.005 L 3,0 Z"
             data-name="Path"
             id="Path-28" />
        </g>
        <g
           transform="translate(503,71)"
           id="circle_graph_4_">
          <path
             style="fill:#ff50ff;fill-opacity:1"
             inkscape:connector-curvature="0"
             transform="translate(104.4,79)"
             d="M 99.1,57.3 212.1,0 a 126.927,126.927 0 0 1 13.7,57.3 C 225.8,126.8 168.6,184 99.1,184 A 126.586,126.586 0 0 1 0,136.2 Z"
             data-name="Path"
             id="Path-29" />
          <path
             style="fill:#2e186a"
             inkscape:connector-curvature="0"
             transform="translate(297.6,36.6)"
             d="m 107.7,0 a 3,3 0 0 1 0.176,5.995 L 107.7,6 H 3 A 3,3 0 0 1 2.824,0.005 L 3,0 Z"
             data-name="Path"
             id="Path-30" />
          <path
             style="fill:#2e186a"
             inkscape:connector-curvature="0"
             transform="translate(346.5,50.7)"
             d="m 58.8,0 a 3,3 0 0 1 0.176,5.995 L 58.8,6 H 3 A 3,3 0 0 1 2.824,0.005 L 3,0 Z"
             data-name="Path"
             id="Path-31" />
          <path
             style="fill:#2e186a"
             inkscape:connector-curvature="0"
             transform="translate(365.2,64.9)"
             d="m 40.1,0 a 3,3 0 0 1 0.176,5.995 L 40.1,6 H 3 A 3,3 0 0 1 2.824,0.005 L 3,0 Z"
             data-name="Path"
             id="Path-32" />
          <path
             style="fill:#2e186a"
             inkscape:connector-curvature="0"
             transform="translate(270.3,148.9)"
             d="m 138.1,0 a 3,3 0 0 1 0.176,5.995 L 138.1,6 H 3 A 3,3 0 0 1 2.824,0.005 L 3,0 Z"
             data-name="Path"
             id="Path-33" />
          <path
             style="fill:#2e186a"
             inkscape:connector-curvature="0"
             transform="translate(380.1,160)"
             d="m 28.3,0 a 3,3 0 0 1 0.176,5.995 L 28.3,6 H 3 A 3,3 0 0 1 2.824,0.005 L 3,0 Z"
             data-name="Path"
             id="Path-34" />
          <g
             transform="translate(46,27)"
             id="Group">
            <path
               style="fill:#2e186a"
               inkscape:connector-curvature="0"
               transform="translate(-2.8,-2.1)"
               d="m 83.5,0 a 3,3 0 0 1 0.176,5.995 L 83.5,6 H 3 A 3,3 0 0 1 2.824,0.005 L 3,0 Z"
               data-name="Path"
               id="Path-35" />
            <path
               style="fill:#2e186a"
               inkscape:connector-curvature="0"
               transform="translate(-2.8,9.3)"
               d="m 19.1,0 a 3,3 0 0 1 0.176,5.995 L 19.1,6 H 3 A 3,3 0 0 1 2.824,0.005 L 3,0 Z"
               data-name="Path"
               id="Path-36" />
          </g>
          <path
             style="fill:#ff50ff;fill-opacity:1"
             inkscape:connector-curvature="0"
             transform="translate(55,138.9)"
             d="m 29.4,81.7 v 0 A 2.986,2.986 0 0 1 27.05,80.567 124.147,124.147 0 0 1 0,4.332 3,3 0 0 1 2.968,1.3 L 124.868,0 h 0.036 a 2.963,2.963 0 0 1 2.83,2.015 2.934,2.934 0 0 1 -0.97,3.337 l -95.5,75.7 A 2.968,2.968 0 0 1 29.4,81.7 Z M 116.169,6.092 6.07,7.267 6.086,7.711 a 117.947,117.947 0 0 0 23.6,66.447 l 0.233,0.307 z"
             data-name="Path"
             id="Path-37" />
          <path
             style="fill:#ff50ff;fill-opacity:1"
             inkscape:connector-curvature="0"
             transform="translate(60.2,83.999)"
             d="m 3,51.7 a 3,3 0 0 1 -3,-3 V 47.1 A 124.721,124.721 0 0 1 8.4,1.919 3.018,3.018 0 0 1 11.2,0 2.988,2.988 0 0 1 12.285,0.2 l 113.6,44.1 a 3,3 0 0 1 -1.047,5.8 L 3.039,51.7 Z M 12.949,6.9 12.622,7.824 A 118.84,118.84 0 0 0 6.017,45.067 L 6.01,45.66 109.31,44.303 Z"
             data-name="Path"
             id="Path-38" />
          <path
             style="fill:#ff50ff;fill-opacity:1"
             inkscape:connector-curvature="0"
             transform="translate(205.085,10.799)"
             d="m 3,111.715 a 3.03,3.03 0 0 1 -2.6,-1.529 2.911,2.911 0 0 1 0,-2.968 L 60.5,1.518 a 3,3 0 0 1 4.094,-1.127 124.111,124.111 0 0 1 29,22.711 123.093,123.093 0 0 1 21.013,30.172 3.005,3.005 0 0 1 -1.356,4.013 l -108.9,54.1 A 3.021,3.021 0 0 1 3,111.715 Z M 64.222,7.121 10.477,101.643 107.866,53.261 107.677,52.902 A 117.828,117.828 0 0 0 64.577,7.334 Z"
             data-name="Path"
             id="Path-39" />
          <path
             style="fill:#0818b4;fill-opacity:1"
             inkscape:connector-curvature="0"
             transform="translate(80.3,0.5)"
             d="M 173.9,16.1 A 121.894,121.894 0 0 0 114.2,0 h -2 A 121.762,121.762 0 0 0 0,77.3 l 113.4,44.5 z"
             data-name="Path"
             id="Path-40" />
          <path
             style="fill:#2e186a"
             inkscape:connector-curvature="0"
             transform="translate(-2.8,160.4)"
             d="m 83.5,0 a 3,3 0 0 1 0.176,5.995 L 83.5,6 H 3 A 3,3 0 0 1 2.824,0.005 L 3,0 Z"
             data-name="Path"
             id="Path-41" />
          <path
             style="fill:#2e186a"
             inkscape:connector-curvature="0"
             transform="translate(-2.8,171.8)"
             d="m 32.1,0 a 3,3 0 0 1 0.176,5.995 L 32.1,6 H 3 A 3,3 0 0 1 2.824,0.005 L 3,0 Z"
             data-name="Path"
             id="Path-42" />
        </g>
        <g
           transform="translate(1052,573)"
           id="hand_II_7_">
          <path
             style="fill:#2e186a"
             inkscape:connector-curvature="0"
             transform="translate(-2.319,4.4)"
             d="M 63.732,0.006 A 3,3 0 0 1 64.106,5.994 188.984,188.984 0 0 0 44.926,8.2 l -8.46,1.486 -3.665,0.661 c -0.927,0.17 -1.82,0.335 -2.69,0.5 l -1.291,0.244 c -9.329,1.775 -16.028,3.342 -19.927,4.78 A 15.449,15.449 0 0 0 6.77,16.8 C 6.649,16.868 6.546,16.931 6.464,16.986 L 6.345,17.07 c -0.586,0.946 -0.407,1.444 0.921,2.254 l 0.172,0.1 c 2.148,1.263 5.839,2.008 9.676,1.875 a 3.0017848,3.0017848 0 1 1 0.207,6 C 12.427,27.468 7.629,26.499 4.397,24.599 0.115,22.08 -1.36,17.848 1.412,13.653 2.353,12.221 4.086,11.247 6.812,10.24 L 7.431,10.018 A 147.572,147.572 0 0 1 26.369,5.449 L 29,4.948 c 1.539,-0.289 3.143,-0.583 4.883,-0.9 L 42.4,2.545 A 194.988,194.988 0 0 1 63.732,0.006 Z"
             data-name="Path"
             id="Path-43" />
          <path
             style="fill:#2e186a"
             inkscape:connector-curvature="0"
             transform="translate(6.078,-2.6)"
             d="m 37.843,64.487 c -4.187,0 -7.469,-0.641 -9.756,-1.906 a 6.488,6.488 0 0 1 -3.66,-5.665 l -0.005,-0.24 a 7.115,7.115 0 0 1 0.109,-1.283 L 24.564,55.218 24.28,55.206 A 19.194,19.194 0 0 1 16.451,53.1 9.379,9.379 0 0 1 11.845,48.646 l -0.069,-0.194 a 4.6,4.6 0 0 1 0.282,-3.316 l 0.032,-0.074 -0.2,0.026 A 30.727,30.727 0 0 1 8.211,45.338 15.41,15.41 0 0 1 5.354,45.1 L 5.1,45.045 A 6.2,6.2 0 0 1 0.537,41.86 c -0.9,-1.876 -0.655,-4.39 0.69,-7.079 1.4,-2.865 7.819,-7.353 20.192,-14.125 l 1.86,-1.01 c 8.507,-4.577 16.819,-8.528 20.215,-9.608 l 0.59,-0.176 C 46.851,9.09 55.754,7.545 71.3,5.139 l 3.322,-0.511 c 4.2,-0.643 8.7,-1.323 13.4,-2.021 L 99.971,0.846 105.6,0.031 a 3,3 0 0 1 3.3,2.094 l 0.047,0.171 14.1,58.4 a 3,3 0 0 1 -2.741,3.7 l -0.175,0.005 h -79.5 l -0.342,0.02 c -0.847,0.043 -1.667,0.066 -2.446,0.066 z M 58.91,36.754 a 4.777,4.777 0 0 1 0.991,0.1 l 0.085,0.019 a 3,3 0 0 1 0.158,5.81 l -0.87,0.254 -1.6,0.481 c -0.8,0.243 -1.526,0.469 -2.233,0.691 l -0.592,0.187 c -0.924,0.294 -1.817,0.583 -2.652,0.859 l -1.027,0.345 -3.256,1.324 -6.884,2.83 c -2.079,0.846 -3.417,1.372 -4.769,1.876 l -0.537,0.2 c -2.951,1.047 -5.314,3.535 -5.3,4.9 0,0.288 0.2,0.563 1.135,0.971 a 16.482,16.482 0 0 0 6.149,0.9 c 0.687,0 1.418,-0.02 2.175,-0.06 l 0.454,-0.026 0.186,-0.006 H 116.31 L 103.746,6.36 96.788,7.375 88.906,8.541 c -3.577,0.533 -6.73,1.006 -9.639,1.448 l -9.347,1.437 c -13.461,2.1 -21.822,3.553 -24.178,4.2 l -0.2,0.057 C 41.6,16.813 31.832,21.747 23.9,26.138 16.454,30.261 7.456,35.696 6.6,37.438 A 7.23,7.23 0 0 0 6.04,38.852 L 6.006,39.006 6,39.082 6.155,39.129 6.37,39.181 a 8.883,8.883 0 0 0 1.83,0.159 47.587,47.587 0 0 0 9.872,-1.508 l 1.17,-0.279 0.054,-0.04 a 69.667,69.667 0 0 1 8.969,-5.383 l 0.409,-0.208 c 1.768,-0.892 3.735,-1.823 5.847,-2.767 3.66,-1.636 7.734,-3.307 12.109,-4.969 l 1.21,-0.456 c 0.57,-0.213 1.145,-0.426 1.711,-0.634 l 1.372,-0.5 1.222,-0.433 a 3,3 0 0 1 2.128,5.608 l -1.623,0.581 -1.038,0.376 c -0.952,0.349 -1.912,0.707 -2.853,1.065 -4.269,1.622 -8.236,3.249 -11.79,4.838 -2.031,0.908 -3.912,1.8 -5.591,2.646 A 56.272,56.272 0 0 0 20.243,44.438 17.141,17.141 0 0 0 18.03,46.68 l -0.12,0.158 0.185,0.145 a 11.582,11.582 0 0 0 2.741,1.48 11.723,11.723 0 0 0 4.2,0.825 8.749,8.749 0 0 0 2.89,-0.471 L 28,48.792 28.254,48.638 A 82.418,82.418 0 0 1 40.379,43 l 0.653,-0.252 c 2.045,-0.783 4.257,-1.584 6.574,-2.38 l 1.422,-0.482 1.39,-0.556 c 4.85,-1.93 6.993,-2.576 8.492,-2.576 z"
             data-name="Path"
             id="Path-44" />
        </g>
        <path
           style="fill:#0818b4;fill-opacity:1"
           inkscape:connector-curvature="0"
           d="m 1405,415.6 a 67.417,67.417 0 0 0 -36.7,-62.4 l -37.7,-20.3 -4.1,18.6 a 37.5,37.5 0 0 1 -44.7,28.5 l -4.9,-1.1 a 37.5,37.5 0 0 1 -28.5,-44.7 l 6.3,-28.3 c -7.2,-5 -12.9,-11.8 -15.6,-20.6 -0.2,-0.6 -0.3,-1.2 -0.5,-1.7 l -37.6,-20.2 -0.1,291.7 102,-20.9 -4.9,-68.5 a 3.007,3.007 0 0 1 6,-0.4 l 5.1,71.1 a 3.042,3.042 0 0 1 -2.4,3.2 l -105.8,21.7 v 0.8 l -57.9,10.6 c 11.4,2.2 24,58.7 24,58.7 h 205.4 a 35.94,35.94 0 0 0 35.9,-36.5 z"
           id="body_5_" />
        <g
           transform="translate(1210,110)"
           id="head_10_">
          <path
             style="fill:#2e186a"
             inkscape:connector-curvature="0"
             transform="translate(34.399,177.499)"
             d="m 91.865,2.385 a 3,3 0 0 1 5.9,1.059 L 97.734,3.618 84.93,64.653 A 40.5,40.5 0 0 1 37.3,95.568 l -0.654,-0.14 -4.9,-1.1 A 40.5,40.5 0 0 1 0.833,46.7 l 0.14,-0.654 6.3,-28.3 a 3,3 0 0 1 5.89,1.131 L 13.13,19.05 6.83,47.35 A 34.495,34.495 0 0 0 32.5,88.345 l 0.556,0.129 4.9,1.1 A 34.487,34.487 0 0 0 78.937,63.94 l 0.128,-0.555 z"
             id="neck_5_" />
          <path
             style="fill:#2e186a"
             inkscape:connector-curvature="0"
             transform="translate(23.176,23.568)"
             d="m 56.557,185.853 v 0 A 69.543,69.543 0 0 1 30.739,180.8 53.259,53.259 0 0 1 13.109,169.415 40.344,40.344 0 0 1 2.857,152.615 73.117,73.117 0 0 1 0,131.725 146.844,146.844 0 0 1 3.372,101.119 c 0.69,-3.321 1.469,-6.612 2.315,-9.783 0.1,-0.366 0.186,-0.69 0.268,-0.99 L 6.211,89.427 6.454,88.574 6.723,87.659 V 87.65 L 6.741,87.587 A 340.691,340.691 0 0 1 19.008,52.819 267.358,267.358 0 0 1 34.681,20.93 l 0.662,-1.125 0.28,-0.466 A 39.781,39.781 0 0 1 50.551,4.647 40.628,40.628 0 0 1 70.163,0 a 57.14,57.14 0 0 1 5.976,0.324 75.666,75.666 0 0 1 18.468,4.531 87.037,87.037 0 0 1 9.3,4.094 l 1.02,0.535 a 93.02,93.02 0 0 1 18.09,12.358 68.717,68.717 0 0 1 12.549,14.6 62.035,62.035 0 0 1 7.347,16.558 70.011,70.011 0 0 1 2.473,18.211 87.265,87.265 0 0 1 -3.908,25.969 c -0.86,2.838 -1.835,5.585 -2.9,8.167 -0.744,1.806 -1.3,2.991 -1.642,3.668 l -0.159,0.316 -2.746,5.17 q -0.57,1.065 -1.177,2.194 l -1.806,3.347 c -3.444,6.357 -6.751,12.327 -9.83,17.743 -0.436,0.765 -0.792,1.388 -1.12,1.959 l -1.444,2.51 c -6.535,11.288 -11.194,18.524 -14.244,22.122 l -0.327,0.384 c -4.593,5.385 -8.763,9.609 -14.19,12.72 -4.809,2.757 -10.728,4.763 -20.43,6.922 l -1.205,0.265 a 55.276,55.276 0 0 1 -11.701,1.186 z M 12.413,89.25 v 0 c -0.541,2.085 -1.978,7.624 -2.937,12.023 l -0.167,0.783 -0.3,1.442 A 139.4,139.4 0 0 0 6,131.683 67.19,67.19 0 0 0 8.588,150.848 c 3.331,10.793 11.775,19.229 24.418,24.395 a 63.712,63.712 0 0 0 23.55,4.611 49.272,49.272 0 0 0 10.43,-1.054 c 17.733,-3.855 22.854,-6.649 32.233,-17.586 l 0.774,-0.911 c 2.845,-3.423 7.493,-10.708 13.813,-21.654 l 1.089,-1.893 1.105,-1.941 c 3.326,-5.848 6.943,-12.389 10.749,-19.443 l 0.413,-0.768 c 0.827,-1.534 1.606,-2.988 2.316,-4.32 l 1.857,-3.5 0.3,-0.6 c 0.066,-0.134 0.144,-0.3 0.231,-0.484 l 0.342,-0.743 c 0.177,-0.4 0.335,-0.754 0.481,-1.1 l 0.338,-0.8 c 0.991,-2.406 1.9,-4.97 2.7,-7.623 a 81.282,81.282 0 0 0 3.65,-24.181 C 139.184,46.812 126.642,27.811 102.1,14.776 A 79.941,79.941 0 0 0 92.493,10.476 69.663,69.663 0 0 0 75.508,6.291 51.181,51.181 0 0 0 70.157,6 C 57.119,6 47.143,11.673 40.5,22.863 l -0.645,1.1 C 29.237,42.168 19.521,65.365 12.5,89.277 L 12.411,89.25 Z"
             id="face_11_" />
          <path
             style="fill:#0818b4;fill-opacity:1"
             inkscape:connector-curvature="0"
             transform="translate(0.9,39.859)"
             d="m 31.9,72.041 c 5.9,-20 15.3,-45.3 28.3,-67.1 a 28.965,28.965 0 0 1 1.9,-2.9 c -10.5,-8.2 -27.6,8.7 -39.4,43.6 -6.1,18 -22.7,27.1 -22.7,27.1 12.7,11.1 24.2,6.3 31.7,0 0.1,-0.4 0.1,-0.7 0.2,-0.7 z"
             id="hair_II_1_" />
          <path
             style="fill:#2e186a"
             inkscape:connector-curvature="0"
             transform="translate(45.899,97.399)"
             d="m 13.714,1.891 a 3,3 0 0 1 5.635,2.054 l -0.06,0.166 -12.363,31.041 8.214,3.035 a 3,3 0 0 1 1.831,3.687 l -0.056,0.167 a 3,3 0 0 1 -3.687,1.831 l -0.167,-0.056 -11.1,-4.1 A 3,3 0 0 1 0.152,35.959 L 0.213,35.79 Z"
             id="nose_9_" />
          <ellipse
             style="fill:#2e186a"
             transform="matrix(0.394,-0.919,0.919,0.394,44.745,100.343)"
             ry="3.5"
             rx="5.5"
             cy="3.5"
             cx="5.5"
             id="eye_II_13_" />
          <ellipse
             style="fill:#2e186a"
             transform="rotate(-77.555,109.79755,10.195479)"
             ry="3.5"
             rx="5.5"
             cy="3.5"
             cx="5.5"
             id="eye_13_" />
          <path
             style="fill:#2e186a"
             inkscape:connector-curvature="0"
             transform="translate(92.599,86.499)"
             d="m 0.059,2.412 a 3,3 0 0 1 3.53,-2.353 18.8,18.8 0 0 1 10.833,6.241 19.534,19.534 0 0 1 2.937,4.587 14.326,14.326 0 0 1 0.846,2.265 3,3 0 0 1 -5.76,1.671 L 12.354,14.509 A 10.451,10.451 0 0 0 11.906,13.388 13.577,13.577 0 0 0 9.87,10.207 12.819,12.819 0 0 0 2.412,5.942 3,3 0 0 1 0.059,2.412 Z"
             id="brow_II_9_" />
          <path
             style="fill:#2e186a"
             inkscape:connector-curvature="0"
             transform="translate(45.9,67.128)"
             d="m 7.334,0.035 c 3.589,-0.262 7.206,0.951 10.734,3.084 a 27.078,27.078 0 0 1 4.161,3.043 3,3 0 0 1 -4.058,4.419 L 18.046,10.47 c -0.153,-0.133 -0.391,-0.331 -0.7,-0.576 A 24.142,24.142 0 0 0 14.969,8.253 12.807,12.807 0 0 0 7.772,6.019 5.767,5.767 0 0 0 5,6.938 L 4.746,7.111 A 3,3 0 0 1 1.253,2.233 11.775,11.775 0 0 1 7.334,0.035 Z"
             id="brow_9_" />
          <path
             style="fill:#ff50ff;fill-opacity:1"
             inkscape:connector-curvature="0"
             transform="translate(43.7,0.39)"
             d="M 180.6,112.51 146.7,95.31 C 151,70.11 148.3,31.11 101,9.11 27,-25.29 0,48.81 0,48.81 l 169.5,85.5 a 12.31,12.31 0 0 0 16.5,-5.4 12.111,12.111 0 0 0 -5.4,-16.4 z"
             id="cap_5_" />
          <path
             style="fill:#2e186a"
             inkscape:connector-curvature="0"
             transform="translate(50.399,152.8)"
             d="m 28.879,0.745 a 3,3 0 0 1 0.276,4.234 11.962,11.962 0 0 1 -1.092,1.06 19.208,19.208 0 0 1 -2.823,2.03 c -6.363,3.774 -14.4,4.254 -23.616,-0.5 A 3.0017176,3.0017176 0 0 1 4.377,2.234 C 11.689,6.01 17.54,5.66 22.177,2.908 A 13.235,13.235 0 0 0 24.118,1.516 L 24.364,1.294 24.643,1.02 a 3,3 0 0 1 4.236,-0.275 z"
             id="mouth_9_" />
          <path
             style="fill:#0818b4;fill-opacity:1"
             inkscape:connector-curvature="0"
             transform="translate(107.639,85.1)"
             d="M 78.861,36.1 7.361,0 c -8.3,25.9 -18.7,77.8 25.6,91.5 0,0 34.6,11.5 44.6,0.1 0,0 -23.8,-17.4 -18.4,-31.7 0,0 24.3,36 52.9,16.9 -0.1,0 -33.8,-10.8 -33.2,-40.7 z"
             id="hair_9_" />
        </g>
        <path
           id="line_8_"
           d="M1582.6,0a3,3,0,0,1,.176,5.995L1582.6,6H3A3,3,0,0,1,2.824.005L3,0Z"
           transform="translate(-2.6 628.7)"
           fill="#2e186a" />
      </g>
    </g>
  </g>
</svg>
