<?xml version="1.0" encoding="UTF-8" standalone="no"?>
<svg
   xmlns:dc="http://purl.org/dc/elements/1.1/"
   xmlns:cc="http://creativecommons.org/ns#"
   xmlns:rdf="http://www.w3.org/1999/02/22-rdf-syntax-ns#"
   xmlns:svg="http://www.w3.org/2000/svg"
   xmlns="http://www.w3.org/2000/svg"
   xmlns:sodipodi="http://sodipodi.sourceforge.net/DTD/sodipodi-0.dtd"
   xmlns:inkscape="http://www.inkscape.org/namespaces/inkscape"
   width="60"
   height="60"
   viewBox="0 0 213.795 234.623"
   version="1.1"
   id="svg15"
   sodipodi:docname="notes.svg"
   inkscape:version="0.92.3 (2405546, 2018-03-11)">
  <metadata
     id="metadata21">
    <rdf:RDF>
      <cc:Work
         rdf:about="">
        <dc:format>image/svg+xml</dc:format>
        <dc:type
           rdf:resource="http://purl.org/dc/dcmitype/StillImage" />
      </cc:Work>
    </rdf:RDF>
  </metadata>
  <defs
     id="defs19" />
  <sodipodi:namedview
     pagecolor="#ffffff"
     bordercolor="#666666"
     borderopacity="1"
     objecttolerance="10"
     gridtolerance="10"
     guidetolerance="10"
     inkscape:pageopacity="0"
     inkscape:pageshadow="2"
     inkscape:window-width="1366"
     inkscape:window-height="705"
     id="namedview17"
     showgrid="false"
     inkscape:zoom="3.9333333"
     inkscape:cx="30"
     inkscape:cy="30"
     inkscape:window-x="0"
     inkscape:window-y="34"
     inkscape:window-maximized="1"
     inkscape:current-layer="post_it_II" />
  <g
     id="notes"
     transform="translate(-0.602 -0.364)">
    <g
       id="post_it_II"
       transform="translate(60)">
      <rect
         id="Rectangle"
         width="131.196"
         height="131.196"
         transform="matrix(0.982, 0.191, -0.191, 0.982, 25.611, 0.364)"
         fill="#feba91"
         style="fill:#ff58ff;fill-opacity:1" />
      <g
         id="lines_2_"
         transform="translate(31.982495,32.058348)"
         style="fill:#ffffff">
        <path
           id="Path"
           d="m 0.067,2.371 a 3,3 0 0 1 3.39,-2.336 l 0.173,0.032 91.3,19.6 a 3,3 0 0 1 -1.086,5.9 L 93.671,25.535 2.371,5.935 A 3,3 0 0 1 0.067,2.371 Z"
           transform="translate(6.699,-2.401)"
           inkscape:connector-curvature="0"
           style="fill:#ffffff" />
        <path
           id="Path-2"
           data-name="Path"
           d="M 0.067,2.371 A 3,3 0 0 1 3.456,0.035 l 0.174,0.032 88.1,18.9 a 3,3 0 0 1 -1.085,5.9 L 90.472,24.835 2.372,5.935 A 3,3 0 0 1 0.067,2.371 Z"
           transform="translate(3.399,14.699)"
           inkscape:connector-curvature="0"
           style="fill:#ffffff" />
        <path
           id="Path-3"
           data-name="Path"
           d="M 0.068,2.371 A 3,3 0 0 1 3.457,0.035 l 0.173,0.032 67.5,14.5 a 3,3 0 0 1 -1.087,5.9 L 69.87,20.435 2.37,5.935 A 3,3 0 0 1 0.068,2.371 Z"
           transform="translate(-2.301,32.199)"
           inkscape:connector-curvature="0"
           style="fill:#ffffff" />
      </g>
    </g>
    <g
       id="post_it_1_"
       transform="translate(0 58)">
      <rect
         id="Rectangle-2"
         data-name="Rectangle"
         width="131.2"
         height="131.2"
         transform="translate(0.602 56.769) rotate(-23.609)"
         fill="#fe7624"
         style="fill:#ff5bff;fill-opacity:1" />
      <g
         id="lines_3_"
         transform="translate(38.046678,58.040844)"
         style="fill:#ffffff">
        <path
           id="Path-4"
           data-name="Path"
           d="M 58.561,0.226 A 3,3 0 0 1 61,5.7 l -0.161,0.072 -56.7,23.3 A 3,3 0 0 1 1.7,23.6 l 0.161,-0.072 z"
           transform="translate(-2.301,-3.001)"
           inkscape:connector-curvature="0"
           style="fill:#ffffff" />
        <path
           id="Path-5"
           data-name="Path"
           d="m 28.463,0.225 a 3,3 0 0 1 2.437,5.48 l -0.161,0.072 -26.6,10.9 A 3,3 0 0 1 1.7,11.2 l 0.161,-0.072 z"
           transform="translate(9.199,29.899)"
           inkscape:connector-curvature="0"
           style="fill:#ffffff" />
      </g>
      <path
         id="Path-6"
         data-name="Path"
         d="M1.4,19.4,0,26.6,50.3,7.9l39.1,82,7.1,1.3L53.4,0Z"
         transform="translate(69 0.3)"
         fill="#fff" />
    </g>
  </g>
</svg>
