<?xml version="1.0" encoding="UTF-8" standalone="no"?>
<svg
   xmlns:dc="http://purl.org/dc/elements/1.1/"
   xmlns:cc="http://creativecommons.org/ns#"
   xmlns:rdf="http://www.w3.org/1999/02/22-rdf-syntax-ns#"
   xmlns:svg="http://www.w3.org/2000/svg"
   xmlns="http://www.w3.org/2000/svg"
   xmlns:sodipodi="http://sodipodi.sourceforge.net/DTD/sodipodi-0.dtd"
   xmlns:inkscape="http://www.inkscape.org/namespaces/inkscape"
   viewBox="0 0 1225.1 709.2"
   version="1.1"
   id="svg65"
   sodipodi:docname="waving.svg"
   inkscape:version="0.92.3 (2405546, 2018-03-11)">
  <metadata
     id="metadata71">
    <rdf:RDF>
      <cc:Work
         rdf:about="">
        <dc:format>image/svg+xml</dc:format>
        <dc:type
           rdf:resource="http://purl.org/dc/dcmitype/StillImage" />
      </cc:Work>
    </rdf:RDF>
  </metadata>
  <defs
     id="defs69" />
  <sodipodi:namedview
     pagecolor="#ffffff"
     bordercolor="#666666"
     borderopacity="1"
     objecttolerance="10"
     gridtolerance="10"
     guidetolerance="10"
     inkscape:pageopacity="0"
     inkscape:pageshadow="2"
     inkscape:window-width="1366"
     inkscape:window-height="705"
     id="namedview67"
     showgrid="false"
     inkscape:zoom="0.70185443"
     inkscape:cx="326.16582"
     inkscape:cy="297.60813"
     inkscape:window-x="0"
     inkscape:window-y="34"
     inkscape:window-maximized="1"
     inkscape:current-layer="svg65" />
  <path
     id="succulent"
     d="m 459.1,468.5 c -9.6,-5.1 -17.8,-2.7 -26.8,6.9 4.1,-23.2 4,-51.3 -14.4,-56 -18.9,-4.9 -29.6,6.9 -40.7,35.4 0.4,-24.4 -4.4,-55.9 -24.6,-57.2 -22.7,-1.4 -30.3,17.3 -35.9,58.8 -7.1,-23.2 -26.6,-63.9 -49.6,-55.8 -22.5,7.9 -21,29.6 -8.5,73.8 -12.3,-19.1 -37,-47.5 -53.5,-36.7 -15.7,10.2 -11.4,26.9 6,57.9 -11.5,-5 -23.4,-5.5 -33,3.9 -21.5,21.2 -11.1,41.3 18.6,78.6 29.8,37.3 243.7,-28.7 253.8,-45.5 10.2,-16.9 26.1,-54.7 8.6,-64.1 z"
     inkscape:connector-curvature="0"
     style="fill:#ffffff" />
  <path
     id="succulent_2_"
     d="m 237.895,592.415 h -0.008 c -22.29,0 -36.937,-4.188 -43.534,-12.445 a 316.178,316.178 0 0 1 -19.342,-26.368 c -4.657,-7.327 -7.666,-13.449 -9.469,-19.265 l -0.22,-0.728 c -2.027,-6.887 -2.161,-13.113 -0.427,-19.035 1.744,-5.939 5.376,-11.571 11.1,-17.217 a 27.631,27.631 0 0 1 19.9,-8.299 35.847,35.847 0 0 1 8.6,1.105 l 0.252,0.064 -0.436,-0.821 c -6.843,-12.951 -10.4,-22.126 -11.529,-29.749 l -0.057,-0.4 c -0.737,-5.337 -0.233,-9.871 1.54,-13.86 a 23.634,23.634 0 0 1 9.2,-10.21 17.4,17.4 0 0 1 9.681,-2.907 c 6.558,0.003 14.03,3.448 22.199,10.248 a 118.511,118.511 0 0 1 15.891,16.538 l 0.258,0.321 -0.2,-0.826 c -3.734,-15.333 -5.148,-25.979 -4.588,-34.508 l 0.065,-0.868 c 0.549,-6.567 2.359,-11.8 5.533,-15.982 3.19,-4.207 7.7,-7.293 13.8,-9.433 a 21.339,21.339 0 0 1 7.097,-1.242 24.407,24.407 0 0 1 13.961,4.832 56.611,56.611 0 0 1 13.14,13.661 137.993,137.993 0 0 1 15.2,28.887 l 0.022,0.058 0.18,-1.067 c 2.628,-15.444 5.628,-25.654 9.725,-33.1 l 0.193,-0.346 a 29.424,29.424 0 0 1 10.3,-11.227 26.966,26.966 0 0 1 14.381,-3.698 c 0.808,0 1.646,0.026 2.49,0.078 a 20.913,20.913 0 0 1 13.739,6.27 c 3.693,3.673 6.7,8.962 8.941,15.718 a 100.486,100.486 0 0 1 4.374,24.315 l 0.013,0.175 0.359,-0.734 c 4.309,-8.714 8.707,-14.917 13.443,-18.962 a 24.053,24.053 0 0 1 16.191,-6.113 34.7,34.7 0 0 1 8.194,1.067 l 0.6,0.15 a 20.818,20.818 0 0 1 11.824,7.963 c 2.9,3.9 4.927,9.116 6.028,15.5 1.3,7.565 1.33,16.7 0.074,27.158 l -0.061,0.5 0.42,-0.3 a 21.814,21.814 0 0 1 12.72,-4.43 22.681,22.681 0 0 1 10.505,2.786 l 0.367,0.193 a 16.444,16.444 0 0 1 5.735,5.033 19.623,19.623 0 0 1 3.049,7.268 c 1.147,5.382 0.743,12.205 -1.2,20.281 -2.662,11.071 -8.423,24.753 -15.034,35.707 -1.419,2.361 -5.877,5.417 -13.249,9.082 a 281.289,281.289 0 0 1 -27.83,11.557 760.836,760.836 0 0 1 -80.314,23.767 c -18.883,4.5 -36.339,7.959 -51.882,10.278 a 290.3,290.3 0 0 1 -41.904,3.58 z m -41.942,-97.352 a 21.882,21.882 0 0 0 -15.746,6.573 c -9.8,9.66 -12.526,18.716 -9.128,30.281 2.982,10.149 10.258,21.86 25.951,41.769 l 2.014,2.542 c 2.7,3.384 7.4,5.961 13.97,7.662 6.386,1.653 14.588,2.492 24.379,2.492 23.284,0 55.407,-4.724 92.9,-13.662 a 762.584,762.584 0 0 0 79.457,-23.5 c 10.452,-3.8 19.605,-7.539 26.47,-10.825 6.7,-3.208 10.751,-5.749 11.713,-7.348 6.317,-10.468 11.812,-23.5 14.339,-34.014 1.615,-6.718 2.055,-12.332 1.306,-16.685 -0.759,-4.416 -2.739,-7.512 -5.884,-9.2 a 17.058,17.058 0 0 0 -8.049,-2.255 c -4.685,0 -9.291,2.5 -14.5,7.866 l -0.66,0.692 a 2.9,2.9 0 0 1 -2.157,0.959 3.114,3.114 0 0 1 -2.359,-1.1 2.924,2.924 0 0 1 -0.627,-2.43 c 2.539,-14.368 2.86,-26.7 0.929,-35.675 -2.048,-9.511 -6.464,-15.2 -13.128,-16.9 a 27.75,27.75 0 0 0 -7,-0.974 c -6.181,0 -11.291,2.585 -16.081,8.134 -4.692,5.436 -9.162,13.833 -14.067,26.424 a 2.884,2.884 0 0 1 -2.758,1.915 3.12,3.12 0 0 1 -2.218,-0.909 2.912,2.912 0 0 1 -0.82,-2.144 c 0.258,-15.653 -1.504,-28.907 -5.104,-38.331 -3.776,-9.892 -9.543,-15.366 -16.679,-15.825 -0.731,-0.045 -1.452,-0.067 -2.141,-0.067 -9.03,0 -15.123,3.842 -19.757,12.458 -4.554,8.47 -7.9,21.983 -10.845,43.816 a 2.953,2.953 0 0 1 -2.988,2.6 2.907,2.907 0 0 1 -2.854,-2.123 c -4.372,-14.285 -11.253,-28.778 -18.408,-38.768 -7.575,-10.58 -15.1,-15.944 -22.355,-15.944 a 14.947,14.947 0 0 0 -4.973,0.861 c -9.79,3.438 -14.371,9.383 -15.318,19.879 -0.933,10.347 1.672,25.383 8.711,50.275 a 2.9,2.9 0 0 1 -0.445,2.595 3.193,3.193 0 0 1 -2.5,1.238 2.869,2.869 0 0 1 -2.465,-1.387 c -7.081,-11 -14.792,-20.339 -22.3,-27.022 -7.795,-6.938 -14.96,-10.6 -20.722,-10.6 a 11.334,11.334 0 0 0 -6.32,1.818 c -6.671,4.334 -9.168,9.9 -8.1,18.064 1.064,8.112 5.715,19.169 15.079,35.853 a 2.915,2.915 0 0 1 -0.013,2.965 2.962,2.962 0 0 1 -3.8,1.255 35.42,35.42 0 0 0 -13.949,-3.298 z"
     inkscape:connector-curvature="0"
     style="fill:#ff1eff;fill-opacity:1" />
  <path
     id="pot"
     d="m 460.8,531.8 0.2,-0.6 -287.7,0.9 0.2,0.6 a 29.748,29.748 0 0 0 -23.7,33.7 l 21.5,138.8 291.6,-0.9 21.5,-138.8 a 29.654,29.654 0 0 0 -23.6,-33.7 z"
     inkscape:connector-curvature="0"
     style="fill:#ff50ff;fill-opacity:1" />
  <path
     style="fill:#257ad1;fill-opacity:1"
     inkscape:connector-curvature="0"
     d="m 932,481.8 a 119.019,119.019 0 0 0 -13.4,0.8 c -23.9,-33 -51.3,-61 -80.1,-78.8 -75,-46.2 -178,-33 -274.1,2.6 -66.1,24.4 -149.8,103.2 -203.5,159 -70,5.3 -123.8,52.9 -120.6,107.4 a 80.582,80.582 0 0 0 9.6,33.4 l 234.9,1.6 c 0.4,-0.6 0.8,-1.3 1.2,-1.9 l 348.4,-1.2 c 0.4,0.5 0.8,1 1.2,1.6 l 192.9,-0.3 c 17.9,-23.7 28.6,-54 28.6,-87.1 0,-75.8 -56,-137.1 -125.1,-137.1 z"
     id="clothing" />
  <g
     transform="translate(358.2,408)"
     id="clothing_lines">
    <path
       style="fill:#ffffff"
       inkscape:connector-curvature="0"
       transform="translate(168,0.3)"
       d="M 319.2,0 C 230.5,55 150.9,56.2 99.3,47.3 51.5,39.1 17,20.7 5.8,13.5 3.9,14.6 2,15.7 0,16.8 9.2,23.1 45.2,43.9 97.2,53 a 294.635,294.635 0 0 0 51.3,4.5 298.4,298.4 0 0 0 52.4,-4.6 C 243,45.4 284.5,28.9 324.5,3.8 322.7,2.4 321,1.2 319.2,0 Z"
       id="Path" />
    <path
       style="fill:#ffffff"
       inkscape:connector-curvature="0"
       transform="translate(472.539,55.395)"
       d="m 5.461,39.4 c 14.1,-19.8 31.5,-30.9 51.8,-33.1 a 66.5,66.5 0 0 1 22,1.4 c -1.9,-2.4 -3.8,-4.8 -5.7,-7.1 a 69.423,69.423 0 0 0 -16.6,-0.2 c -15.3,1.6 -37.5,9 -56.4,35.6 a 3.041,3.041 0 0 0 0.7,4.2 2.716,2.716 0 0 0 1.7,0.6 3.23,3.23 0 0 0 2.5,-1.4 z"
       data-name="Path"
       id="Path-2" />
    <path
       style="fill:#ffffff"
       inkscape:connector-curvature="0"
       transform="translate(476.1,69.1)"
       d="m 3,96 v 0 A 3.08,3.08 0 0 0 6.1,93.1 C 6.3,84.3 9.8,64.3 22.1,45.5 36.3,23.6 57.3,10.2 84.3,5.4 83,3.6 81.7,1.8 80.3,0 53.3,5.5 31.5,20 17,42.2 4.9,60.8 0.3,81.2 0,92.9 A 3.031,3.031 0 0 0 3,96 Z"
       data-name="Path"
       id="Path-3" />
    <path
       style="fill:#ffffff"
       inkscape:connector-curvature="0"
       transform="translate(12.6,135.486)"
       d="m 42.8,0.114 a 143.643,143.643 0 0 0 -33.9,2.6 c -3,3 -6,6 -8.9,9 11.1,-6.1 74.3,-13.7 100.4,16 a 2.9,2.9 0 0 0 2.3,1 3.057,3.057 0 0 0 2,-0.7 3,3 0 0 0 0.3,-4.2 C 88.1,4.514 58.8,0.714 42.8,0.114 Z"
       data-name="Path"
       id="Path-4" />
    <g
       transform="translate(0,150)"
       id="Group">
      <path
         style="fill:#ffffff"
         inkscape:connector-curvature="0"
         transform="translate(0.278,7.078)"
         d="m 0.422,0.522 h 0.2 a 0.139,0.139 0 0 0 -0.2,0 z"
         data-name="Path"
         id="Path-5" />
      <path
         style="fill:#ffffff"
         inkscape:connector-curvature="0"
         transform="translate(2.7,0.853)"
         d="M 104.1,27.647 C 68.8,0.947 24.8,-0.653 6.2,0.147 4.1,2.347 2,4.447 0,6.547 c 10.7,-0.9 61.8,-3.3 100.5,25.9 a 3,3 0 0 0 3.6,-4.8 z"
         data-name="Path"
         id="Path-6" />
    </g>
  </g>
  <path
     style="fill:#ffffff"
     inkscape:connector-curvature="0"
     d="m 312.5,705.3 c 0,0 32.8,-97 125.1,-79.4 92.3,17.6 218.6,55.4 218.6,55.4 v 24.3 z"
     id="hand" />
  <path
     style="fill:#0818b4;fill-opacity:1"
     inkscape:connector-curvature="0"
     d="m 656.198,708.6 -343.7,-0.3 a 3,3 0 0 1 -2.84,-3.961 c 0.023,-0.069 0.055,-0.16 0.095,-0.271 l 0.388,-1.062 c 0.145,-0.386 0.283,-0.748 0.422,-1.1 l 0.489,-1.23 c 1.228,-3.039 2.657,-6.216 4.246,-9.442 a 155.71,155.71 0 0 1 18.11,-28.579 127.26,127.26 0 0 1 18.628,-18.944 104.686,104.686 0 0 1 21.872,-13.819 96.733,96.733 0 0 1 20.069,-6.808 101.446,101.446 0 0 1 21.779,-2.324 120.073,120.073 0 0 1 22.406,2.193 c 17.189,3.278 36.8,7.5 58.276,12.541 l 3.644,0.859 c 12.756,3.021 26.314,6.362 40.3,9.931 26.091,6.658 53.663,14.092 81.95,22.1 8.758,2.478 17.286,4.928 25.347,7.282 l 5.392,1.582 3.992,1.183 a 2.98,2.98 0 0 1 2.135,2.869 v 24.3 a 3,3 0 0 1 -3,3 z M 415.756,626.76 a 92.239,92.239 0 0 0 -39.31,8.571 c -14.231,6.641 -27.136,17.1 -38.355,31.081 a 149.626,149.626 0 0 0 -17.409,27.475 c -1.3,2.644 -2.5,5.254 -3.542,7.757 l -0.274,0.661 336.335,0.293 v -19.06 l -9.278,-2.722 c -7.445,-2.167 -15.259,-4.409 -23.226,-6.664 l -4.2,-1.187 c -26.729,-7.529 -52.836,-14.55 -77.6,-20.869 -13.977,-3.566 -27.5,-6.9 -40.2,-9.9 -22.839,-5.408 -43.584,-9.9 -61.661,-13.344 a 114.049,114.049 0 0 0 -21.28,-2.092 z"
     id="hand_2_" />
  <g
     transform="translate(921.2,218)"
     id="hand_II_1_">
    <path
       style="fill:#ffffff"
       inkscape:connector-curvature="0"
       transform="translate(111.707,38.492)"
       d="m 8.393,90.508 c 0,0 -7.4,-3.7 -8.3,-12.2 -0.9,-8.5 4.8,-45.5 14,-50.7 9.3,-5.2 51.6,-28.1 59.4,-27.6 7.8,0.5 11,68.4 -65.1,90.5 z"
       data-name="Path"
       id="Path-7" />
    <path
       style="fill:#ffffff"
       inkscape:connector-curvature="0"
       transform="translate(124.6,6.747)"
       d="m 0,63.453 c 15.8,-55.3 28.7,-67.7 36.2,-62.3 6.8,4.9 -7,40.1 -11,58.4"
       data-name="Path"
       id="Path-8" />
    <path
       style="fill:#0818b4;fill-opacity:1"
       inkscape:connector-curvature="0"
       transform="translate(121.599,3.694)"
       d="m 21.706,10.946 0.485,-0.725 c 6.395,-9.395 13.036,-12.573 18.764,-8.449 3.377,2.433 3.741,7.462 2.39,15.456 l -0.2,1.127 c -0.9,4.945 -2.39,10.72 -4.819,19.117 l -3.971,13.55 c -1.858,6.4 -2.478,8.8 -3.226,12.224 a 3.0001669,3.0001669 0 0 1 -5.862,-1.281 l 0.284,-1.276 c 0.645,-2.843 1.3,-5.336 2.818,-10.569 l 4,-13.652 a 186.722,186.722 0 0 0 5.057,-20.24 l 0.123,-0.76 c 0.812,-5.219 0.557,-8.352 -0.1,-8.828 -2.3,-1.657 -5.805,0.112 -10.728,7.6 l -0.445,0.688 c -6.319,9.923 -13.222,27.314 -20.39,52.4 A 3.0000923,3.0000923 0 0 1 0.116,65.682 L 0.632,63.887 C 7.939,38.642 15.023,21.114 21.706,10.946 Z"
       id="Path_2_" />
    <path
       style="fill:#ffffff"
       inkscape:connector-curvature="0"
       transform="translate(3.85,49.705)"
       d="m 190.45,8.495 c 7.9,-12.9 21,-12.2 14.2,9.7 -6.7,21.4 -11.6,49.2 -24.1,61.8 -12.5,12.6 -17,18.2 -17,18.2 0,0 -25,93.3 -39.2,170.9 -20.5,112.2 -59.3,133.8 -95.5,120.9 -36.2,-12.8 -42.9,-63.6 6.5,-162.1 49.4,-98.6 75.5,-156 75.5,-156"
       id="hand_II_3_" />
    <path
       style="fill:#0818b4;fill-opacity:1"
       inkscape:connector-curvature="0"
       transform="translate(0.85,46.695)"
       d="M 190.892,9.939 C 195.377,2.616 201.9,-1.492 207.131,0.5 c 5.761,2.195 6.884,10.02 3.519,21.153 l -0.726,2.359 c -0.866,2.852 -1.757,5.978 -2.936,10.246 l -2.173,7.893 c -6.357,22.93 -11.063,34.677 -18.879,42.7 l -1.965,1.99 c -4.086,4.151 -7.494,7.737 -10.278,10.779 l -1.1,1.214 c -1.158,1.282 -2.107,2.36 -2.86,3.242 l -0.45,0.528 -1.58,6 -1.418,5.445 c -1.376,5.309 -2.864,11.123 -4.442,17.372 -5.709,22.614 -11.418,46.275 -16.746,69.82 l -1.151,5.113 c -2.472,11.035 -4.8,21.783 -6.953,32.175 l -0.866,4.2 q -2.781,13.57 -5.116,26.093 l -0.705,3.821 c -9.78,53.527 -24.185,89.309 -42.63,108.881 -16.5,17.508 -35.978,21.736 -56.821,14.308 C 10.821,388.751 0.026,371.072 0,344.1 -0.026,316.018 11.49,278.077 34.953,231 l 4.611,-9.218 C 58.249,184.377 74.747,150.59 89,120.757 l 5.544,-11.643 q 5.135,-10.823 9.316,-19.772 l 4.382,-9.421 2.878,-6.257 a 3,3 0 0 1 5.53,2.321 l -0.376,0.837 -3.118,6.766 -4.281,9.194 q -4.869,10.409 -11,23.313 l -4.2,8.8 c -15.088,31.553 -32.658,67.472 -52.642,107.36 -45.377,90.471 -45.326,144.788 -8.176,157.924 18.655,6.648 35.618,2.966 50.447,-12.769 17.326,-18.384 31.223,-52.658 40.806,-104.275 l 0.289,-1.569 c 1.976,-10.8 4.223,-22.244 6.715,-34.253 2.5,-12.028 5.216,-24.528 8.127,-37.394 5.043,-22.287 10.426,-44.671 15.827,-66.178 l 2.2,-8.7 q 1.532,-6.024 2.929,-11.423 l 1.864,-7.16 1.592,-6.028 a 3,3 0 0 1 0.559,-1.1 l 0.412,-0.5 0.545,-0.643 c 0.789,-0.923 1.774,-2.043 2.968,-3.365 l 1.515,-1.663 c 3.154,-3.433 7.054,-7.511 11.769,-12.264 l 0.456,-0.469 c 6.406,-6.731 10.752,-17.234 16.357,-37.018 l 3.6,-12.992 c 1,-3.571 1.795,-6.329 2.6,-8.933 l 0.361,-1.164 c 2.7,-8.7 2.057,-13.5 0.21,-14.207 -1.847,-0.707 -5.826,1.8 -8.986,6.963 a 3.0002352,3.0002352 0 0 1 -5.117,-3.134 z"
       id="hand_II_4_" />
    <path
       style="fill:#ffffff"
       inkscape:connector-curvature="0"
       transform="translate(89.48,48.858)"
       d="m 26.12,74.442 c -7.2,-4.9 -6.3,-33.1 -14.4,-45.4 -10,-15.3 -19.8,-31.2 -1.3,-28.8 15.9,2 20.9,16 24.6,21"
       data-name="Path"
       id="Path-9" />
    <path
       style="fill:#0818b4;fill-opacity:1"
       inkscape:connector-curvature="0"
       d="M 0.47,11.705 C -1.609,3.331 3.273,-1.122 13.794,0.243 22.625,1.354 29.02,5.723 34.2,12.7 l 0.242,0.332 c 1.891,2.647 5.49,8.678 5.964,9.369 l 0.027,0.038 A 3,3 0 1 1 35.608,26 l -0.1,-0.145 C 34.654,24.592 30.913,18.33 29.384,16.27 25.108,10.511 20.084,7.077 13.036,6.191 9.359,5.714 7.221,6.053 6.436,6.769 5.972,7.192 5.816,8.175 6.236,10.002 l 0.061,0.254 c 1.04,4.19 4.046,9.551 10.6,19.6 l 0.336,0.515 c 3.063,4.652 4.948,10.806 6.873,20.648 l 0.389,2.031 1.165,6.35 c 1.829,9.681 3.257,14.141 5.055,15.479 l 0.092,0.065 a 3,3 0 0 1 -3.376,4.96 c -3.752,-2.553 -5.365,-7.274 -7.556,-18.8 l -1.352,-7.293 -0.195,-1.02 C 16.544,43.534 14.843,37.803 12.37,33.917 L 10.512,31.05 C 4.472,21.681 1.654,16.473 0.47,11.705 Z"
       data-name="Path_2_"
       id="Path_2_2"
       transform="translate(86.481,45.88)" />
    <path
       style="fill:#ffffff"
       inkscape:connector-curvature="0"
       transform="translate(182.1,18.21)"
       d="m 3,63.39 c 0,0 14.1,-34.2 18.8,-50.1 C 27,-4.01 8.8,-6.51 0,18.39"
       data-name="Path"
       id="Path-10" />
    <path
       style="fill:#0818b4;fill-opacity:1"
       inkscape:connector-curvature="0"
       transform="translate(179.099,15.207)"
       d="m 18.956,0.024 c 7.8,-0.507 11.6,7.089 8.818,16.791 l -0.1,0.328 C 26.241,22 23.885,28.756 20.812,36.962 l -0.55,1.463 q -0.637,1.691 -1.307,3.443 c -1.949,5.1 -4.019,10.378 -6.1,15.6 l -1.708,4.254 -1.775,4.356 -0.6,1.458 A 3,3 0 0 1 3.162,65.414 L 5.579,59.47 q 0.394,-0.977 0.81,-2.012 c 2.077,-5.17 4.154,-10.432 6.123,-15.549 l 1.277,-3.336 0.858,-2.265 c 3.2,-8.5 5.666,-15.5 7.155,-20.459 l 0.125,-0.42 C 23.842,9.056 22.263,5.822 19.345,6.011 15.025,6.292 9.46,12.117 5.829,22.392 a 3.0000687,3.0000687 0 1 1 -5.657,-2 C 4.518,8.1 11.783,0.49 18.956,0.024 Z"
       data-name="Path_2_"
       id="Path_2_3" />
    <path
       style="fill:#ffffff"
       inkscape:connector-curvature="0"
       transform="translate(149.7,3.598)"
       d="M 18.8,69 C 18.8,69 46.5,6.3 34.1,0.7 22.8,-4.4 14.2,18.5 0,62.7"
       data-name="Path"
       id="Path-11" />
    <path
       style="fill:#0818b4;fill-opacity:1"
       inkscape:connector-curvature="0"
       transform="translate(146.699,0.537)"
       d="M 18.883,14.095 C 24.9,2.463 31.012,-2.277 38.336,1.029 c 7.532,3.4 6.1,16.387 -0.633,37.593 -1.144,3.6 -2.431,7.361 -3.834,11.236 -1.812,5 -3.738,9.975 -5.677,14.742 l -0.727,1.778 c -0.679,1.65 -1.316,3.167 -1.9,4.529 l -1.023,2.369 a 3,3 0 0 1 -5.488,-2.425 l 0.781,-1.8 0.65,-1.528 c 0.449,-1.061 0.927,-2.207 1.428,-3.426 2.152,-5.227 4.3,-10.74 6.311,-16.279 1.378,-3.8 2.639,-7.488 3.757,-11.008 l 0.49,-1.564 C 37.522,18.895 38.658,7.758 35.867,6.5 32.395,4.933 28.695,7.93 23.819,17.626 l -0.56,1.131 C 18.77,27.98 13.966,41.443 5.859,66.683 A 3.0011681,3.0011681 0 1 1 0.145,64.845 l 1.743,-5.4 C 9.3,36.592 13.853,24.157 18.313,15.218 Z"
       data-name="Path_2_"
       id="Path_2_4" />
  </g>
  <path
     style="fill:#ffffff"
     inkscape:connector-curvature="0"
     d="m 637,336.2 3.9,70.7 c 0,0 -6.6,38.2 46.4,31.1 52.8,-7 46.3,-38.3 46.3,-38.3 l -16.3,-87.8 z"
     id="neck" />
  <path
     style="fill:#0818b4;fill-opacity:1"
     inkscape:connector-curvature="0"
     d="m 674.946,441.886 v 0 c -8.958,0 -16.462,-1.574 -22.3,-4.677 a 27.02,27.02 0 0 1 -12.29,-13.094 32.769,32.769 0 0 1 -2.573,-16.448 c 0.02,-0.206 0.042,-0.4 0.064,-0.592 l 0.041,-0.32 -3.888,-70.39 a 2.991,2.991 0 0 1 2.131,-3.036 l 80.3,-24.3 a 3,3 0 0 1 3.819,2.323 l 16.31,87.847 c 0.032,0.168 0.065,0.375 0.1,0.616 l 0.05,0.407 a 27.3,27.3 0 0 1 -0.8,10.279 31.29,31.29 0 0 1 -5.487,10.863 c -7.912,10.3 -22.285,16.9 -42.721,19.607 a 96.811,96.811 0 0 1 -12.756,0.915 z m 40.016,-126.145 -74.837,22.647 3.775,68.347 a 3.038,3.038 0 0 1 -0.009,0.452 l -0.031,0.224 c -0.015,0.088 -0.035,0.238 -0.056,0.412 l -0.045,0.423 a 26.742,26.742 0 0 0 2.078,13.419 c 4.227,9.45 13.947,14.242 28.89,14.243 a 92.614,92.614 0 0 0 12.183,-0.882 c 18.806,-2.493 31.846,-8.319 38.756,-17.314 a 23.375,23.375 0 0 0 5.08,-16.813 c -0.023,-0.2 -0.046,-0.368 -0.068,-0.5 z"
     id="neck_2_" />
  <path
     style="fill:#ffffff"
     inkscape:connector-curvature="0"
     d="m 737.6,222.696 c 0,0 41,-15.4 42.6,27.3 1.6,42.7 -42.6,31.6 -42.6,31.6"
     id="ear" />
  <path
     style="fill:#2e186a"
     inkscape:connector-curvature="0"
     d="m 741.57,218.428 a 45.966,45.966 0 0 1 17.836,-0.957 c 14.132,2.303 23.051,12.642 23.793,32.416 0.766,20.447 -8.337,31.639 -23.635,34.987 a 52.582,52.582 0 0 1 -18.985,0.341 l -0.968,-0.155 c -1.22,-0.206 -2.152,-0.4 -2.74,-0.551 a 3,3 0 0 1 1.289,-5.857 l 0.651,0.147 0.31,0.065 c 0.688,0.142 1.479,0.285 2.36,0.419 a 46.831,46.831 0 0 0 16.8,-0.27 c 12.518,-2.74 19.576,-11.418 18.918,-28.901 l -0.046,-1.016 c -0.867,-16.25 -7.659,-23.9 -18.715,-25.7 a 40.221,40.221 0 0 0 -15.488,0.871 c -1.01,0.239 -1.943,0.492 -2.782,0.745 l -0.412,0.127 c -0.306,0.1 -0.558,0.179 -0.752,0.245 l -0.35,0.124 a 3.0018129,3.0018129 0 1 1 -2.109,-5.621 l 0.387,-0.141 a 46.734,46.734 0 0 1 4.638,-1.318 z"
     id="ear_2_" />
  <path
     style="fill:#ffffff"
     inkscape:connector-curvature="0"
     d="m 660.7,357.7 v 0 a 80.4,80.4 0 0 1 -80.4,-80.4 v -70.2 a 51.555,51.555 0 0 1 51.5,-51.5 h 70.4 a 39.05,39.05 0 0 1 39,39 v 82.6 a 80.511,80.511 0 0 1 -80.5,80.5 z"
     id="face" />
  <path
     style="fill:#0818b4;fill-opacity:1"
     inkscape:connector-curvature="0"
     d="M 660.7,360.7 A 83.008,83.008 0 0 1 614.072,346.456 83.653,83.653 0 0 1 583.854,309.762 82.867,82.867 0 0 1 577.3,277.3 v -70.2 a 54.562,54.562 0 0 1 54.5,-54.5 h 70.4 a 42.047,42.047 0 0 1 42,42 v 82.6 a 83.117,83.117 0 0 1 -13.977,46.251 83.769,83.769 0 0 1 -36.109,30.291 82.953,82.953 0 0 1 -32.057,6.948 z M 631.8,158.6 a 48.555,48.555 0 0 0 -48.5,48.5 v 70.2 a 77.476,77.476 0 0 0 77.376,77.4 l 1.308,-0.011 c 42.026,-0.682 76.217,-35.444 76.217,-77.49 V 194.6 a 36.041,36.041 0 0 0 -36,-36 z"
     id="face_2_" />
  <g
     transform="translate(566.2,250)"
     id="headphones"
     style="fill:#ff50ff;fill-opacity:1">
    <path
       style="fill:#ff50ff;fill-opacity:1"
       inkscape:connector-curvature="0"
       transform="translate(100.59,0.7)"
       d="m 93.11,64.6 a 277.361,277.361 0 0 0 -4.9,-52.2 c 0,-0.3 0.1,-0.7 0.1,-1 A 11.4,11.4 0 0 0 76.91,0 v 11.4 l 0.3,11.4 a 11.725,11.725 0 0 0 6.4,-2.2 c 3.7,23 11,91.6 -19.8,149.9 -5.6,10.7 -10.9,20.6 -16.1,30.1 -29,54.1 -48.2,89.9 -47.7,121.8 a 3.076,3.076 0 0 0 3,3 v 0 a 3.009,3.009 0 0 0 3,-3 c -0.4,-30.4 18.5,-65.6 47,-118.9 5.1,-9.6 10.4,-19.4 16.1,-30.2 20.1,-38.1 24.2,-80.1 24,-108.7 z"
       data-name="Path"
       id="Path-12" />
    <path
       style="fill:#ff50ff;fill-opacity:1"
       inkscape:connector-curvature="0"
       transform="translate(0.2,3.5)"
       d="m 6.1,21.3 a 10.321,10.321 0 0 0 4.6,1.4 V 0 A 11.276,11.276 0 0 0 0.5,9.7 3.371,3.371 0 0 0 0,11.4 c 0,4.6 0,112.3 32,160.9 32.7,49.8 42.8,78.2 45.1,126.4 a 3.058,3.058 0 0 0 3,2.9 h 0.1 a 3.075,3.075 0 0 0 2.9,-3.1 C 80.8,248.9 70.5,219.9 37,169 11.4,130.2 6.9,49.4 6.1,21.3 Z"
       data-name="Path"
       id="Path-13" />
  </g>
  <path
     style="fill:#0818b4;fill-opacity:1"
     inkscape:connector-curvature="0"
     d="m 636.049,226 a 3,3 0 0 1 3.042,2.773 l 0.009,0.176 1.077,63.484 0.047,0.018 a 1.165,1.165 0 0 0 0.789,-0.067 l 0.147,-0.059 c 1.542,-0.66 3.574,-2.892 5.907,-7.163 a 3.0000888,3.0000888 0 0 1 5.266,2.876 c -5.481,10.037 -11.379,12.56 -16.09,9 a 6.908,6.908 0 0 1 -1.506,-1.524 3,3 0 0 1 -0.525,-1.44 l -0.012,-0.223 -1.1,-64.8 A 3,3 0 0 1 636.049,226 Z"
     id="nose" />
  <path
     style="fill:#0818b4;fill-opacity:1"
     inkscape:connector-curvature="0"
     d="m 667.657,301.889 a 3,3 0 0 1 4.513,1.636 l 0.07,0.248 c 0.073,0.277 0.155,0.641 0.232,1.084 a 16.941,16.941 0 0 1 -1.728,11.129 c -3.35,6.205 -10.59,10.25 -22.25,11.4 a 3,3 0 0 1 -0.588,-5.971 c 9.819,-0.967 15.25,-4 17.559,-8.278 a 10.594,10.594 0 0 0 1.117,-3.239 l 0.065,-0.424 -0.091,0.05 c -13.04,7.023 -26.067,7.491 -32.523,0.269 l -0.215,-0.247 a 3,3 0 0 1 4.565,-3.893 c 4.641,5.445 16.926,4.318 29.274,-3.764 z"
     id="mouth" />
  <path
     style="fill:#2e186a"
     inkscape:connector-curvature="0"
     d="m 663.367,202.595 c 6.546,-4.979 14.318,-5.511 22.7,1.157 a 3.0016756,3.0016756 0 0 1 -3.735,4.7 c -6.065,-4.829 -10.833,-4.503 -15.333,-1.081 a 19.424,19.424 0 0 0 -1.737,1.5 l -1.1,1.089 c -0.155,0.149 -0.286,0.268 -0.427,0.382 a 3.053,3.053 0 0 1 -1.307,0.67 3,3 0 0 1 -2.529,-5.309 l 0.13,-0.094 0.657,-0.653 a 26.44,26.44 0 0 1 2.681,-2.361 z"
     id="brow" />
  <ellipse
     style="fill:#0818b4;fill-opacity:1"
     ry="7.6999998"
     rx="5"
     cy="248.10001"
     cx="684.20001"
     id="eye_II" />
  <ellipse
     style="fill:#0818b4;fill-opacity:1"
     ry="7.6999998"
     rx="5"
     cy="250"
     cx="611.5"
     id="eye" />
  <path
     style="fill:#2e186a"
     inkscape:connector-curvature="0"
     d="m 597.554,201.649 c 7.489,-5.974 15.701,-6.256 22.913,3.008 a 3,3 0 1 1 -4.734,3.686 c -4.869,-6.253 -9.3,-6.1 -14.437,-2 a 25.977,25.977 0 0 0 -2.017,1.8 l -1.18,1.172 c -0.159,0.155 -0.292,0.277 -0.429,0.392 a 2.984,2.984 0 0 1 -1.345,0.7 3,3 0 0 1 -2.526,-5.305 l 0.115,-0.083 0.772,-0.774 a 33.308,33.308 0 0 1 2.868,-2.596 z"
     id="brow_II" />
  <g
     transform="translate(576.2)"
     id="hair_shape">
    <path
       style="fill:#0818b4;fill-opacity:1"
       inkscape:connector-curvature="0"
       transform="translate(0.805,138.089)"
       d="m 103.795,0.011 c -19.5,0.3 -34.3,1.2 -43.1,2.9 v 0 c -71.6,16.3 -60,69.3 -60,69.3 0,0 35,6.7 63.5,-35.5 0,0 39.1,31.9 97,44.8 0.9,-0.2 2,-0.5 3,-0.8 v 2.9 a 46.707,46.707 0 0 1 14.6,-1.5 c -0.6,-20.9 -4.4,-47.3 -21.6,-64.3 -12.2,-12.1 -30.2,-18.1 -53.4,-17.8 z"
       data-name="Path"
       id="Path-14" />
    <path
       style="fill:#ffffff"
       inkscape:connector-curvature="0"
       transform="translate(60.5,131.994)"
       d="M 2.588,2.535 A 351.244,351.244 0 0 1 47.432,0.006 C 78.34,0.334 99,11.722 111.237,31.807 a 88.58,88.58 0 0 1 10.444,27 171.635,171.635 0 0 1 3.408,23.935 3,3 0 0 1 -5.977,0.521 l -0.161,-1.795 C 117.086,61.32 113.887,47.68 106.114,34.926 94.965,16.638 76.235,6.312 47.382,6.006 L 45.619,6 A 342.914,342.914 0 0 0 3.413,8.478 3,3 0 1 1 2.588,2.535 Z"
       data-name="Path"
       id="Path-15" />
    <path
       style="fill:#0818b4;fill-opacity:1"
       inkscape:connector-curvature="0"
       d="m 232.111,94.587 c -24.7,-70.6 -94.7,-110.3 -156.4,-88.7 -50.7,17.7 -80,71.4 -75.2,129.1 9.3,-1.6 23.9,-2.6 43.7,-2.9 24.9,-0.3 44.3,6.2 57.7,19.5 19,18.8 22.9,47.3 23.4,69.5 9.2,2.5 17.7,10 18.4,28.9 0.1,1.9 -1.6,16.6 -1.2,16.5 a 31.6,31.6 0 0 0 4.5,16.4 c 6.9,11.1 20.9,18 41.7,20.4 h 0.4 a 2.96,2.96 0 0 0 0.4,-5.9 c -18.8,-2.2 -31.4,-8.1 -37.3,-17.6 a 24.467,24.467 0 0 1 -3.6,-11.1 c 5.1,6 14,12.5 28.1,12.5 a 56.866,56.866 0 0 0 11.1,-1.2 2.9614186,2.9614186 0 1 0 -1.2,-5.8 c -18.2,3.8 -28.3,-3.1 -33.6,-9.3 a 103.666,103.666 0 0 0 12.1,-3.4 c 61.6,-21.7 91.6,-96.4 67,-166.9 z"
       data-name="Path"
       id="Path-16"
       transform="translate(60.389,0.013)" />
  </g>
  <g
     transform="translate(552.2,213)"
     id="glasses"
     style="fill:#0818b4;fill-opacity:1">
    <path
       style="fill:#0818b4;fill-opacity:1"
       inkscape:connector-curvature="0"
       transform="translate(96.7,-2.6)"
       d="M 39.6,79.2 A 39.61,39.61 0 0 1 24.186,3.112 39.61017,39.61017 0 0 1 55.014,76.088 39.353,39.353 0 0 1 39.6,79.2 Z M 39.6,6 A 33.6,33.6 0 1 0 73.2,39.6 33.638,33.638 0 0 0 39.6,6 Z"
       id="Oval" />
    <path
       style="fill:#0818b4;fill-opacity:1"
       inkscape:connector-curvature="0"
       transform="translate(72.1,33.1)"
       d="m 26.8,0 a 3,3 0 0 1 0.176,5.995 L 26.8,6 H 3 A 3,3 0 0 1 2.824,0.005 L 3,0 Z"
       data-name="Path"
       id="Path-17" />
    <path
       style="fill:#0818b4;fill-opacity:1"
       inkscape:connector-curvature="0"
       transform="translate(165.299,4.599)"
       d="m 22.224,0.389 a 3,3 0 0 1 3.109,5.129 l -0.156,0.095 -20.7,11.7 A 3,3 0 0 1 1.368,12.184 l 0.156,-0.095 z"
       data-name="Path"
       id="Path-18" />
    <path
       style="fill:#0818b4;fill-opacity:1"
       inkscape:connector-curvature="0"
       transform="translate(-2.3,-2.6)"
       d="M 39.6,79.2 A 39.61,39.61 0 0 1 24.186,3.112 39.61017,39.61017 0 0 1 55.014,76.088 39.353,39.353 0 0 1 39.6,79.2 Z M 39.6,6 A 33.6,33.6 0 1 0 73.2,39.6 33.638,33.638 0 0 0 39.6,6 Z"
       data-name="Oval"
       id="Oval-2" />
  </g>
  <path
     id="shape"
     d="M 841.2,667.8 H 820.4 L 810.2,516.5 A 20.85,20.85 0 0 0 789.7,497.3 H 499.8 a 17.674,17.674 0 0 0 -17.9,19.2 L 493.2,684 a 20.85,20.85 0 0 0 20.5,19.2 l 327.4,-0.4 A 10.819,10.819 0 0 0 851.9,692 v -13.3 a 10.693,10.693 0 0 0 -10.7,-10.9 z"
     inkscape:connector-curvature="0"
     style="fill:#ff50ff;fill-opacity:1" />
  <g
     id="icon"
     transform="translate(621.2,558)">
    <path
       id="Path-19"
       data-name="Path"
       d="m 43.636,39.048 a 28.182,28.182 0 0 0 -15.4,-8.3 10.226,10.226 0 0 0 1.7,-4.6 10.449,10.449 0 0 0 -8.6,-11.2 h -0.3 c -1.1,-4.1 -3.2,-10.9 -5.6,-13.8 a 3.1,3.1 0 0 0 -3.8,-0.8 2.084,2.084 0 0 0 -0.4,3.2 c 1.6,1.9 3.5,7.8 4.7,12.3 a 9.2,9.2 0 0 0 -4.9,7.5 10.623,10.623 0 0 0 2.8,8.1 23.432,23.432 0 0 0 -5.1,2.3 c -10.4,6.5 -11.7,19.3 -2.9,28.8 8.8,9.4 24.5,11.8 34.9,5.3 10.5,-6.5 11.8,-19.4 2.9,-28.8 z"
       transform="translate(0.364,0.352)"
       inkscape:connector-curvature="0"
       style="fill:#ffffff" />
    <path
       id="Path-20"
       data-name="Path"
       d="m 17,0.316 c 0,0 -15,-3 -17,9.5 0.1,0 11.9,4.2 17,-9.5 z"
       transform="translate(22.6,0.684)"
       inkscape:connector-curvature="0"
       style="fill:#ffffff" />
  </g>
  <path
     style="fill:#0818b4;fill-opacity:1"
     inkscape:connector-curvature="0"
     d="m 1222.1,703.2 a 3,3 0 0 1 0.176,5.995 L 1222.1,709.2 H 3 A 3,3 0 0 1 2.824,703.205 L 3,703.2 Z"
     id="line" />
</svg>
